<svg width="164" height="43" viewBox="0 0 164 43" fill="none" xmlns="http://www.w3.org/2000/svg">
<path d="M23.6664 23.4039V0.464355H19.028L11.9758 11.8412L4.87621 0.464355H0.285156V23.4039H4.59223V7.66198L11.9758 19.5032L19.3593 7.66198V23.4039H23.6664Z" fill="white"/>
<path d="M34.2211 0.464355H29.9141V23.4039H34.2211V0.464355Z" fill="white"/>
<path d="M48.1343 23.9146C53.2933 23.9146 56.6538 21.2678 56.6538 17.1349C56.6538 12.4449 52.8674 11.3304 49.1756 10.2624C45.4365 9.1479 44.2532 8.26561 44.2532 6.64034C44.2532 5.433 45.2945 4.13278 47.5664 4.13278C49.6489 4.13278 51.0688 4.9222 52.1101 6.68677L55.7072 4.59714C54.0033 1.62522 51.1635 0.0463867 47.5664 0.0463867C43.7799 0.0463867 39.9462 2.3682 39.9462 6.77965C39.9462 11.0982 43.3539 12.6306 46.7144 13.5129C50.1695 14.4416 52.2994 15.1382 52.2994 17.2278C52.2994 18.0172 51.9208 19.8747 48.2763 19.8747C45.7205 19.8747 43.9219 18.8531 42.786 16.7634L39.0469 18.8995C40.5614 22.1036 43.7799 23.9146 48.1343 23.9146Z" fill="#C7C7C7"/>
<path d="M72.4608 0C65.6452 0 60.2969 5.2473 60.2969 11.9341C60.2969 18.6209 65.6452 23.8682 72.4608 23.8682C79.2764 23.8682 84.6247 18.6209 84.6247 11.9341C84.6247 5.2473 79.2764 0 72.4608 0ZM72.4608 19.7819C67.9171 19.7819 64.6039 16.4849 64.6039 11.9341C64.6039 7.38337 67.9171 4.08639 72.4608 4.08639C77.0045 4.08639 80.3176 7.38337 80.3176 11.9341C80.3176 16.4849 77.0045 19.7819 72.4608 19.7819Z" fill="#C7C7C7"/>
<path d="M106.921 6.87257L110.612 4.78294C108.482 1.76458 104.933 0 100.957 0C93.9993 0 88.793 5.15443 88.793 11.9341C88.793 18.7603 94.0466 23.8682 100.957 23.8682C104.933 23.8682 108.482 22.1037 110.612 19.1317L106.921 17.0421C105.643 18.7603 103.513 19.7819 101.004 19.7819C96.3185 19.7819 93.1474 16.6242 93.1474 11.9341C93.1474 7.24406 96.3185 4.08639 101.004 4.08639C103.465 4.08639 105.595 5.10799 106.921 6.87257Z" fill="#C7C7C7"/>
<path d="M119.889 0.464355H115.582V23.4039H119.889V0.464355Z" fill="#C7C7C7"/>
<path d="M140.429 19.5961L141.659 23.4039H146.44L138.488 0.464355H132.241L124.289 23.4039H129.069L130.3 19.5961H140.429ZM135.364 4.03995L139.151 15.7419H131.578L135.364 4.03995Z" fill="#C7C7C7"/>
<path d="M150.844 0.464355V23.4039H164.002V19.4104H155.198V0.464355H150.844Z" fill="#C7C7C7"/>
<path d="M3.83377 40.678V37.7525C3.83377 36.9167 3.40779 36.2666 2.60317 36.2666C1.79856 36.2666 1.27792 37.0096 1.27792 37.8454V40.7245H0V35.0128H1.13593L1.23059 35.7558C1.75123 35.1985 2.27186 34.9199 2.93449 34.9199C4.16508 34.9199 5.11169 35.8951 5.11169 37.7061V40.678H3.83377Z" fill="white"/>
<path d="M11.0753 38.3562C11.1699 39.0528 11.7379 39.5636 12.6372 39.5636C13.1105 39.5636 13.7258 39.3778 14.0097 39.0528L14.8144 39.935C14.2464 40.5387 13.3944 40.8638 12.5898 40.8638C10.7913 40.8638 9.75 39.6564 9.75 37.8454C9.75 36.1273 10.8386 34.9199 12.4952 34.9199C14.2464 34.9199 15.2877 36.0808 15.0983 38.4026H11.0753V38.3562ZM13.8677 37.1953C13.7731 36.4523 13.2525 36.0808 12.5425 36.0808C11.8325 36.0808 11.2646 36.4523 11.0753 37.1953H13.8677Z" fill="white"/>
<path d="M21.4389 33.4341V35.0129H22.8588V36.2203H21.4389V38.6349C21.4389 39.1922 21.7229 39.4244 22.1015 39.4244C22.2909 39.4244 22.5275 39.3779 22.7168 39.2386L23.0955 40.446C22.7168 40.5853 22.4329 40.6781 22.0542 40.6781C20.9183 40.7246 20.2083 40.028 20.2083 38.6349V36.2203H19.2617V35.0129H20.2083V33.5734L21.4389 33.4341Z" fill="white"/>
<path d="M32.3277 35.0129L33.4636 39.2386L34.6469 35.0129H36.0668L34.2683 40.6782H32.801L32.233 39.0065L31.7597 37.1026L31.2864 39.0065L30.7658 40.6782H29.2986L27.5 35.0129H28.9199L30.1032 39.2386L31.2391 35.0129H32.3277Z" fill="white"/>
<path d="M46.0519 37.8454C46.0519 39.4707 45.058 40.7709 43.3541 40.7709C41.6502 40.7709 40.6562 39.4707 40.6562 37.8454C40.6562 36.2201 41.6975 34.9199 43.3068 34.9199C44.9633 34.9199 46.0519 36.2201 46.0519 37.8454ZM41.9342 37.8454C41.9342 38.6813 42.4075 39.5171 43.3541 39.5171C44.3007 39.5171 44.774 38.7277 44.774 37.8454C44.774 37.0096 44.206 36.1737 43.3541 36.1737C42.4075 36.1737 41.9342 37.0096 41.9342 37.8454Z" fill="white"/>
<path d="M51.8742 35.0128L51.9689 35.663C52.3475 34.9664 52.9155 34.8735 53.4361 34.8735C53.9568 34.8735 54.4774 35.1057 54.7614 35.4308L54.1934 36.6381C53.9094 36.4059 53.6728 36.2666 53.2941 36.2666C52.6315 36.2666 52.0162 36.6381 52.0162 37.7061V40.6781H50.7383V35.0128H51.8742Z" fill="white"/>
<path d="M60.2506 32.6909V37.2881L62.0018 35.0127H63.5164V35.1056L61.4338 37.6596L63.8477 40.5387V40.6315H62.2858L60.2506 38.0775V40.6315H58.9727V32.6909H60.2506Z" fill="white"/>
<path d="M79.4209 32.6912V40.6783H78.2377L78.143 39.8888C77.7644 40.5854 77.1017 40.7711 76.4864 40.7711C74.9719 40.7711 73.8359 39.6567 73.8359 37.8456C73.8359 35.8953 74.9719 34.8737 76.4864 34.8737C77.0544 34.8737 77.859 35.1988 78.1903 35.756V32.6448H79.4209V32.6912ZM75.0665 37.8456C75.0665 38.8208 75.7292 39.5173 76.5338 39.5173C77.3384 39.5173 78.0483 38.8672 78.0483 37.8456C78.0483 36.8705 77.3384 36.2204 76.5338 36.2204C75.7292 36.1739 75.0665 36.824 75.0665 37.8456Z" fill="white"/>
<path d="M85.6669 33.4341C85.6669 34.5021 84.1523 34.5021 84.1523 33.4341C84.1523 32.366 85.6669 32.366 85.6669 33.4341ZM84.2943 35.0129V40.6781H85.5723V35.0129H84.2943Z" fill="white"/>
<path d="M90.9232 40.6781V36.3595H89.9766V35.1522H90.9232V34.7807C90.9232 33.2947 91.8698 32.5518 92.9111 32.5518C93.3844 32.5518 93.8103 32.6911 94.2363 33.0161L93.763 34.0377C93.479 33.852 93.2424 33.7591 92.9584 33.7591C92.5324 33.7591 92.2011 34.0842 92.2011 34.7807V35.1522H93.7157V36.3595H92.2011V40.6781H90.9232Z" fill="white"/>
<path d="M98.9193 40.6781V36.3595H97.9727V35.1522H98.9193V34.7807C98.9193 33.2947 99.8659 32.5518 100.907 32.5518C101.38 32.5518 101.806 32.6911 102.232 33.0161L101.759 34.0377C101.475 33.852 101.238 33.7591 100.954 33.7591C100.528 33.7591 100.197 34.0842 100.197 34.7807V35.1522H101.712V36.3595H100.197V40.6781H98.9193Z" fill="white"/>
<path d="M107.583 38.3562C107.678 39.0528 108.246 39.5636 109.145 39.5636C109.618 39.5636 110.234 39.3778 110.518 39.0528L111.322 39.935C110.754 40.5387 109.902 40.8638 109.098 40.8638C107.299 40.8638 106.258 39.6564 106.258 37.8454C106.258 36.1273 107.346 34.9199 109.003 34.9199C110.754 34.9199 111.796 36.0808 111.606 38.4026H107.583V38.3562ZM110.376 37.1953C110.281 36.4523 109.76 36.0808 109.05 36.0808C108.34 36.0808 107.772 36.4523 107.583 37.1953H110.376Z" fill="white"/>
<path d="M117.523 35.0128L117.617 35.663C117.996 34.9664 118.564 34.8735 119.085 34.8735C119.605 34.8735 120.126 35.1057 120.41 35.4308L119.842 36.6381C119.558 36.4059 119.321 36.2666 118.943 36.2666C118.28 36.2666 117.665 36.6381 117.665 37.7061V40.6781H116.387V35.0128H117.523Z" fill="white"/>
<path d="M125.755 38.3562C125.85 39.0528 126.418 39.5636 127.317 39.5636C127.79 39.5636 128.405 39.3778 128.689 39.0528L129.494 39.935C128.926 40.5387 128.074 40.8638 127.27 40.8638C125.471 40.8638 124.43 39.6564 124.43 37.8454C124.43 36.1273 125.518 34.9199 127.175 34.9199C128.926 34.9199 129.967 36.0808 129.778 38.4026H125.755V38.3562ZM128.547 37.1953C128.453 36.4523 127.932 36.0808 127.222 36.0808C126.512 36.0808 125.944 36.4523 125.755 37.1953H128.547Z" fill="white"/>
<path d="M138.345 40.678V37.7525C138.345 36.9167 137.92 36.2666 137.115 36.2666C136.31 36.2666 135.79 37.0096 135.79 37.8454V40.7245H134.512V35.0128H135.648L135.742 35.7558C136.263 35.1985 136.784 34.9199 137.446 34.9199C138.677 34.9199 139.623 35.8951 139.623 37.7061V40.678H138.345Z" fill="white"/>
<path d="M146.06 33.4341V35.0129H147.48V36.2203H146.06V38.6349C146.06 39.1922 146.344 39.4244 146.723 39.4244C146.912 39.4244 147.149 39.3779 147.338 39.2386L147.717 40.446C147.338 40.5853 147.054 40.6781 146.675 40.6781C145.539 40.7246 144.829 40.028 144.829 38.6349V36.2203H143.883V35.0129H144.829V33.5734L146.06 33.4341Z" fill="white"/>
<path d="M153.493 32.6909V40.678H152.215V32.6909H153.493Z" fill="white"/>
<path d="M163.668 35.0129L160.497 43H159.077L160.024 40.5389L157.941 35.0129H159.409L160.213 37.4276L160.687 39.0065L161.207 37.4741L162.154 35.0129H163.668Z" fill="white"/>
</svg>
